<?xml version="1.0" encoding="UTF-8"?>
<svg id="Layer_1" xmlns="http://www.w3.org/2000/svg" version="1.1" viewBox="0 0 2500 2500">
  <!-- Generator: Adobe Illustrator 29.1.0, SVG Export Plug-In . SVG Version: 2.1.0 Build 142)  -->
  <defs>
    <style>
      .st0 {
        fill: #ffc403;
      }
    </style>
  </defs>
  <path class="st0" d="M200,0h2100c110.5,0,200,89.5,200,200v2100c0,110.5-89.5,200-200,200H200c-110.5,0-200-89.5-200-200V200C0,89.5,89.5,0,200,0Z"/>
  <path d="M1111.3,1102.4v285.4h-78v-160.1l-52.1,77.1h-40.9l-57.3-77.1v160.1h-71.3v-285.4h72l82.3,111.9,73.8-111.9h71.6ZM1133.8,1167.1v-64.6h266.5v64.6h-93.3v220.7h-79.6v-220.7h-93.6ZM1693.9,1102.4v285.4h-65.5l-134.1-163.1v163.1h-71.3v-285.4h71l128.4,157.3v-157.3h71.6Z"/>
  <path d="M1250,1686c-230.5,0-447.9-43-611.9-121.3-171.6-82-266.2-193.6-266.2-314.6s94.5-232.6,266.2-314.6c164-78.4,381.4-121.3,611.9-121.3s447.9,43,611.9,121.3c171.6,82,266.2,193.6,266.2,314.6s-94.5,232.6-266.2,314.6c-164,78.4-381.4,121.3-611.9,121.3ZM1250,878.4c-221.3,0-428.7,40.9-584.1,115.2-147.9,70.7-229.6,161.9-229.6,256.7s81.4,186,229.6,256.4c155.5,74.4,363.1,115.2,584.1,115.2s428.7-40.9,584.1-115.2c147.9-70.4,229.6-161.9,229.6-256.4s-81.4-186-229.6-256.4c-155.5-74.7-362.8-115.5-584.1-115.5h0Z"/>
</svg>